<?xml version="1.0" encoding="UTF-8"?>
<svg xmlns="http://www.w3.org/2000/svg" id="a" width="865.76" height="682.89" viewBox="0 0 865.76 682.89">
  <path d="M103.04,533.24c-3.68,0-6.62-1-8.75-2.98-3.18-2.96-3.33-7-3.34-7.17-.46-3.89,.36-7.19,2.44-9.76,3.67-4.53,9.9-5.16,10.16-5.19l.09,1c-.06,0-6.08,.62-9.48,4.83-1.9,2.35-2.65,5.4-2.22,9.05,0,.08,.16,3.85,3.03,6.52,2.08,1.93,5.07,2.84,8.88,2.68l.04,1c-.29,.01-.58,.02-.86,.02Z" fill="#002346"></path>
  <g>
    <path d="M275.7,552.82H824.86v12.26c.02,7.78-6.27,14.11-14.05,14.13-.01,0-.03,0-.04,0H275.7v-26.39h0Z" fill="#fff"></path>
    <path d="M810.81,579.72H275.19v-27.4H825.37v12.77c.01,3.9-1.5,7.57-4.25,10.33s-6.41,4.29-10.31,4.3Zm-534.61-1.01H810.77c7.53-.02,13.61-6.13,13.58-13.62v-11.76H276.21v25.38Z" fill="#002346"></path>
  </g>
  <g>
    <path d="M404.59,108.68h320.19c34.95,0,63.29,28.34,63.29,63.29v391.25H341.29V171.98c0-34.95,28.34-63.29,63.29-63.29h0Z" fill="#e6e6e6"></path>
    <path d="M788.57,563.71H340.79V171.98c0-35.1,28.5-63.67,63.58-63.79h0s.22-.01,.22-.01h320.19c35.17,0,63.79,28.62,63.79,63.79v391.75Zm-446.78-1h445.78V171.96c0-34.62-28.17-62.79-62.79-62.79H404.79s-.21,.01-.21,.01c-34.62,0-62.79,28.17-62.79,62.79v390.74Z" fill="#002346"></path>
  </g>
  <g>
    <path d="M422.56,108.68h309.59c37.88,0,68.59,30.71,68.59,68.59v385.95H354V177.22c.03-37.85,30.71-68.52,68.56-68.54Z" fill="#fff"></path>
    <path d="M801.24,563.71H353.5V177.21c.03-38.05,31.01-69.02,69.06-69.04h309.59c38.1,0,69.09,30.99,69.09,69.09v386.45Zm-446.74-1h445.74V177.27c0-37.54-30.54-68.09-68.09-68.09H422.56c-37.5,.02-68.03,30.54-68.06,68.04v385.5Z" fill="#002346"></path>
  </g>
  <g>
    <path d="M727.34,405.48l-32.42,142.55h-78.36l8.82-160.23h87.86c.27,0,.54,0,.81,0h0c7.97,.44,14.08,7.27,13.64,15.24-.05,.82-.16,1.64-.35,2.44Z" fill="#001dc2"></path>
    <path d="M695.32,548.52h-79.29l.03-.53,8.85-160.7h89.14c8.26,.46,14.59,7.53,14.14,15.77-.05,.85-.17,1.7-.36,2.52l-32.51,142.94Zm-78.23-1h77.43l32.33-142.16c.18-.77,.29-1.56,.33-2.36,.43-7.69-5.48-14.29-13.17-14.71h-.78s-87.39,0-87.39,0l-8.76,159.23Z" fill="#002346"></path>
  </g>
  <g>
    <path d="M727.34,405.48l-32.42,142.55h-28.61l35.1-149c.7-3.07,2.37-5.83,4.76-7.88,2.22-1.89,4.97-3.04,7.88-3.28h0c7.97,.45,14.07,7.28,13.62,15.25-.04,.79-.16,1.58-.33,2.36Z" fill="#001dc2"></path>
    <path d="M695.32,548.52h-29.64l.14-.61,35.1-149c.73-3.19,2.43-6.01,4.92-8.14,2.31-1.97,5.14-3.15,8.16-3.4,8.31,.47,14.63,7.54,14.16,15.78-.05,.82-.16,1.64-.34,2.44h0s-32.51,142.94-32.51,142.94Zm-28.38-1h27.58l32.33-142.16c.17-.75,.27-1.51,.32-2.27,.43-7.69-5.46-14.29-13.15-14.73-2.75,.23-5.38,1.33-7.53,3.16-2.32,1.99-3.91,4.63-4.6,7.61l-34.96,148.39Z" fill="#002346"></path>
  </g>
  <path d="M555.96,185.84h-29.86c-.28,0-.5-.22-.5-.5s.22-.5,.5-.5h29.86c.28,0,.5,.22,.5,.5s-.22,.5-.5,.5Z" fill="#002346"></path>
  <path d="M555.77,206.04h-29.86c-.28,0-.5-.22-.5-.5s.22-.5,.5-.5h29.86c.28,0,.5,.22,.5,.5s-.22,.5-.5,.5Z" fill="#002346"></path>
  <path d="M556.4,243.92h-29.86c-.28,0-.5-.22-.5-.5s.22-.5,.5-.5h29.86c.28,0,.5,.22,.5,.5s-.22,.5-.5,.5Z" fill="#002346"></path>
  <g>
    <path d="M431.33,289.07s-12.75,22.15-21.33,65.46c0,0-8.72,47.88-10.91,90.91,0,0-5.58,79.79-5.84,90.32v12.8h73.75l7-4.52,3.64-45.16,.76-96.67s-.72-54.55,12.37-97.76l-23.77-3.55-19-5.4-16.67-6.43Z" fill="#e6e6e6"></path>
    <path d="M467.15,549.05h-74.4v-13.3c.26-10.43,5.79-89.56,5.84-90.35,2.17-42.56,10.83-90.49,10.92-90.96,8.5-42.9,21.26-65.4,21.39-65.62l.21-.37,17.07,6.58,18.96,5.39,24.28,3.62-.17,.55c-12.92,42.64-12.36,97.06-12.35,97.61l-.76,96.68-3.66,45.44-7.33,4.73Zm-73.4-1h73.1l6.67-4.31,3.62-44.91,.76-96.63c0-.53-.56-54.64,12.22-97.35l-23.2-3.46-19.06-5.41-16.31-6.29c-1.68,3.09-13.2,25.22-21.07,64.93-.09,.47-8.74,48.33-10.9,90.84-.06,.81-5.58,79.91-5.84,90.31v12.29Z" fill="#002346"></path>
  </g>
  <path d="M409.8,229.22s-41.41,42-17.57,73.4c0,0,24.23-17.69,44-22.4-.33-1.71-.57-3.43-.72-5.16v-18.39s-16.87-3.01-25.71-27.45Z" fill="#002346"></path>
  <g>
    <path d="M396.06,196.44l14.38-4.15c.64-.18,1.3,.2,1.48,.84,.01,.05,.03,.11,.03,.16h0c.1,.6-.27,1.18-.85,1.35l-14.65,4.21-.39-2.41Z" fill="#000000"></path>
    <path d="M396.05,199.48l-.55-3.4,14.81-4.27c.44-.12,.9-.07,1.3,.16,.4,.22,.68,.59,.8,1.03,.02,.08,.04,.16,.05,.24,.13,.83-.38,1.65-1.2,1.89l-15.2,4.37Zm.58-2.69l.23,1.42,14.11-4.05c.34-.1,.55-.44,.49-.79l-.02-.11c-.05-.18-.17-.33-.33-.42-.16-.09-.35-.12-.53-.06l-13.95,4.03Z" fill="#002346"></path>
  </g>
  <g>
    <path d="M491.1,207.55v66c0,15.35-12.44,27.79-27.79,27.79-14.77,0-26.96-11.55-27.75-26.3v-67.49h55.54Z" fill="#f2b3c1"></path>
    <path d="M463.31,301.83h0c-15.03,0-27.44-11.76-28.25-26.77v-68.02s56.54,0,56.54,0v66.5c0,7.56-2.94,14.66-8.29,20-5.34,5.34-12.45,8.29-20,8.29Zm-27.25-93.79v66.99c.78,14.46,12.75,25.8,27.25,25.8,7.29,0,14.14-2.84,19.3-7.99,5.15-5.15,7.99-12.01,7.99-19.3v-65.5h-54.54Z" fill="#002346"></path>
  </g>
  <g opacity=".2">
    <path d="M401.49,296.57c-.07,0-.14-.04-.17-.1-2.21-4.23-3.54-8.86-3.92-13.62-.31-3.97-.04-7.97,.81-11.87,.82-4.04,2.22-7.94,4.15-11.58,.05-.09,.16-.12,.25-.07s.12,.16,.07,.25c-1.9,3.62-3.28,7.49-4.11,11.49-1.94,8.51-.84,17.44,3.09,25.23,.04,.09,0,.2-.08,.25-.03,.02-.06,.02-.09,.02Z"></path>
  </g>
  <g>
    <path d="M436.11,280.49c.06-.1-.03-.23-.15-.2-3.73,.9-40.13,10.57-73.6,50.93,0,0-30.74,35.75-47.05,94.22l38.39,110.28h39.52s4.52-79.29,7.53-109.53c0,.03,7.38-99.68,35.35-145.7Z" fill="#000000"></path>
    <path d="M393.7,536.21h-40.35l-38.56-110.76,.04-.15c16.15-57.91,46.84-94.05,47.15-94.41,33.48-40.37,69.82-50.11,73.86-51.09,.25-.06,.51,.04,.66,.24,.15,.21,.16,.48,.03,.7h0c-27.33,44.95-34.97,141.37-35.28,145.45l-.05,.48c-2.97,30.21-7.44,108.28-7.48,109.07l-.03,.47Zm-39.64-1h38.69c.38-6.62,4.65-80.39,7.5-109.08,.31-4.08,7.89-99.67,34.96-145.14-6.81,1.82-40.89,12.46-72.47,50.54-.31,.36-30.81,36.29-46.91,93.88l38.22,109.8Zm81.62-254.99h0s0,0,0,0h0Z" fill="#002346"></path>
  </g>
  <g>
    <path d="M591.14,331.87c36.44,45.09,54.78,104.27,54.78,104.27,24.47,81.31-24.84,112.3-24.84,112.3l-154.08,.25c12.54-27.48-9.79-42.41-9.79-42.41l20.45-7.4,.76-91.47c-1.5-49.43,10.58-96.86,10.58-96.86,5.97-16.31,2.88-32.83,1.68-36.07-.09-.25,.11-.49,.37-.45,6.77,1.23,63.61,12.71,100.09,57.83Z" fill="#000000"></path>
    <path d="M466.22,549.19l.32-.71c12.22-26.78-9.39-41.64-9.61-41.79l-.82-.55,21.05-7.62,.76-91.12c-1.48-48.92,10.47-96.5,10.6-96.98,6.14-16.78,2.64-33.23,1.7-35.77-.1-.28-.05-.6,.14-.83,.19-.23,.49-.34,.78-.28,6.42,1.17,63.79,12.73,100.39,58.01h0c36.08,44.65,54.69,103.84,54.87,104.44,12.69,42.17,5.22,70.59-3.28,87.02-9.23,17.83-21.65,25.77-21.77,25.85l-.12,.08h-.14l-154.86,.25Zm-7.97-42.76c3.81,2.98,20.11,17.59,9.52,41.75l153.16-.25c1.28-.85,12.71-8.76,21.33-25.44,8.4-16.25,15.76-44.41,3.18-86.21-.18-.59-18.73-59.6-54.69-104.1-35.89-44.4-91.88-56.18-99.51-57.6,1.08,3.34,4.27,19.64-1.77,36.14-.11,.43-12.03,47.88-10.55,96.67l-.76,91.84-19.9,7.2Z" fill="#002346"></path>
  </g>
  <g>
    <path d="M501.13,345.06h23.84c2.29,0,4.14,1.85,4.14,4.14h0c0,2.29-1.85,4.14-4.14,4.14h-23.84c-2.29,0-4.14-1.85-4.14-4.14h0c0-2.29,1.85-4.14,4.14-4.14Z" fill="#001dc2"></path>
    <path d="M524.97,353.84h-23.84c-2.56,0-4.64-2.08-4.64-4.64s2.08-4.64,4.64-4.64h23.84c2.56,0,4.64,2.08,4.64,4.64s-2.08,4.64-4.64,4.64Zm-23.84-8.28c-2.01,0-3.64,1.63-3.64,3.64s1.63,3.64,3.64,3.64h23.84c2.01,0,3.64-1.63,3.64-3.64s-1.63-3.64-3.64-3.64h-23.84Z" fill="#002346"></path>
  </g>
  <g>
    <path d="M470.69,535.34c-10.37,4.73-22.88-.08-22.88-.08l-15.13-5.71-14.1-5.33c-1.73-1.2-3.95-1.44-5.9-.63-4.51,1.13-9.53,2-9.53,2-2.73,.52-5.38,1.37-7.91,2.51l-12.42,6.4c-4.4,1.97-9.47,1.74-13.67-.63-6.78,4.52-12.3-1-12.3-1-2.13,2.51-3.38,2.19-3.38,2.19l-2.31-6.61,14.22-14.9-5.9,3.64c-3.19,2.45-7.23,3.53-11.22,3l-2.13-6.36,24.11-13.42c.68-.38,1.44-.63,2.21-.73l20.82-2.73c13.3-2.51,22-.13,22-.13l33.12,8.91c6.65,2.88,8.91,.5,8.91,.5,16.35,12.35,13.38,29.11,13.38,29.11Z" fill="#f2b3c1"></path>
    <path d="M460.22,537.93c-6.73,0-12.25-2.08-12.59-2.21l-29.34-11.1c-1.6-1.11-3.63-1.33-5.42-.58-4.55,1.14-9.59,2.02-9.64,2.03-2.68,.51-5.3,1.35-7.79,2.47l-12.4,6.39c-4.46,2-9.61,1.8-13.88-.49-5.88,3.72-10.86,.29-12.28-.88-2.07,2.26-3.4,2.01-3.55,1.97l-.26-.07-2.5-7.15,11.75-12.31-2.59,1.6c-3.28,2.52-7.39,3.62-11.55,3.07l-.31-.04-2.36-7.05,24.48-13.63c.74-.41,1.55-.68,2.39-.79l20.82-2.73c13.23-2.5,21.84-.22,22.2-.12l33.12,8.91c6.24,2.7,8.4,.65,8.42,.63l.31-.31,.35,.26c16.4,12.39,13.6,29.43,13.57,29.6l-.05,.26-.24,.11c-3.52,1.6-7.25,2.14-10.67,2.14Zm-41.41-14.16l29.17,11.02c.12,.05,12.24,4.6,22.25,.2,.27-2.13,1.57-16.97-12.92-28.14-.9,.6-3.59,1.72-9.11-.67l-33.05-8.89c-.09-.02-8.76-2.32-21.78,.14l-20.85,2.73c-.72,.09-1.4,.32-2.03,.67l-23.75,13.22,1.9,5.67c3.78,.42,7.51-.62,10.54-2.94l9.25-5.71-16.69,17.49,2.09,5.98c.4-.08,1.32-.44,2.65-2.01l.35-.41,.38,.38c.21,.21,5.32,5.17,11.67,.94l.26-.17,.27,.15c4.04,2.28,8.98,2.5,13.22,.61l12.4-6.39c2.58-1.17,5.28-2.03,8.04-2.56,.06-.01,5.06-.88,9.5-1.99,2.02-.85,4.38-.6,6.26,.67Z" fill="#002346"></path>
  </g>
  <g>
    <path d="M191.71,532.5l-41.2-103.75c-3.1-7.8,.71-16.63,8.51-19.73,1.55-.61,3.18-.97,4.84-1.05l102-5.18c17.78-.91,34,10.09,39.74,26.94l35.93,105.35c1.47,4.37,4.35,8.13,8.2,10.68,2.04,1.33,4.28,2.32,6.64,2.93H215.56c-10.52,0-19.97-6.42-23.85-16.19Z" fill="#001dc2"></path>
    <path d="M360.32,549.19H215.56c-10.79,0-20.33-6.48-24.31-16.51l-41.2-103.75c-3.19-8.04,.75-17.18,8.79-20.38,1.6-.64,3.28-1,5-1.09l102-5.18c17.92-.9,34.46,10.3,40.24,27.28l35.93,105.35c1.42,4.25,4.27,7.95,8,10.42,1.99,1.3,4.18,2.27,6.49,2.86l3.83,.98Zm-168.15-16.87c3.83,9.64,13.01,15.88,23.39,15.87h137.72c-1.33-.55-2.61-1.22-3.82-2.01-3.92-2.6-6.91-6.48-8.4-10.94l-35.93-105.35c-5.64-16.55-21.78-27.51-39.24-26.6l-102,5.18c-1.61,.08-3.19,.42-4.68,1.02-7.53,2.99-11.22,11.55-8.23,19.08l41.2,103.75Z" fill="#002346"></path>
  </g>
  <g>
    <path d="M268.77,402.76l21-.65c10.18-.21,19.34,6.14,22.7,15.75l41.28,117.89h105.7c3.53,0,6.4,2.87,6.4,6.4h0c0,3.54-2.86,6.4-6.39,6.41l-103.11,.12c-6.92-1.75-12.5-6.87-14.84-13.61l-35.93-105.35s-7.2-25.45-36.81-26.96Z" fill="#001dc2"></path>
    <path d="M356.29,549.19l-.06-.02c-7.11-1.8-12.79-7.01-15.19-13.93l-35.93-105.35c-.08-.28-7.47-25.15-36.36-26.62v-1s21.01-.65,21.01-.65c10.42-.22,19.74,6.25,23.19,16.08l41.16,117.56h105.35c3.8,0,6.9,3.1,6.9,6.9s-3.09,6.9-6.89,6.91l-103.17,.12Zm-80.83-146.13c24.12,4.63,30.54,26.29,30.6,26.53l35.92,105.32c2.29,6.58,7.68,11.54,14.43,13.27l103.05-.12c3.25,0,5.89-2.65,5.89-5.9s-2.65-5.91-5.9-5.91h-106.05l-41.4-118.23c-3.3-9.43-12.22-15.63-22.22-15.42l-14.32,.44Z" fill="#002346"></path>
  </g>
  <g>
    <circle cx="247.01" cy="480.5" r="10.85" transform="translate(-266.85 647.35) rotate(-80.78)" fill="#e6e6e6"></circle>
    <path d="M247.01,491.84c-6.26,0-11.35-5.09-11.35-11.35s5.09-11.35,11.35-11.35,11.35,5.09,11.35,11.35-5.09,11.35-11.35,11.35Zm0-21.7c-5.71,0-10.35,4.64-10.35,10.35s4.64,10.35,10.35,10.35,10.35-4.64,10.35-10.35-4.64-10.35-10.35-10.35Z" fill="#002346"></path>
  </g>
  <g>
    <rect x="46.07" y="247.95" width="237.76" height="195.22" rx="13.43" ry="13.43" fill="#fff"></rect>
    <path d="M270.4,443.67H59.5c-7.68,0-13.93-6.25-13.93-13.93v-168.36c0-7.68,6.25-13.93,13.93-13.93h210.9c7.68,0,13.93,6.25,13.93,13.93v168.36c0,7.68-6.25,13.93-13.93,13.93ZM59.5,248.44c-7.13,0-12.93,5.8-12.93,12.93v168.36c0,7.13,5.8,12.93,12.93,12.93h210.9c7.13,0,12.93-5.8,12.93-12.93v-168.36c0-7.13-5.8-12.93-12.93-12.93H59.5Z" fill="#002346"></path>
  </g>
  <g>
    <rect x="121.73" y="306.66" width="31.37" height="31.49" fill="#000000"></rect>
    <path d="M153.6,338.65h-32.37v-32.49h32.37v32.49Zm-31.37-1h30.37v-30.49h-30.37v30.49Z" fill="#002346"></path>
  </g>
  <g>
    <rect x="163.76" y="306.66" width="78.04" height="11.17" fill="#e6e6e6"></rect>
    <path d="M242.3,318.33h-79.04v-12.17h79.04v12.17Zm-78.04-1h77.04v-10.17h-77.04v10.17Z" fill="#002346"></path>
  </g>
  <g>
    <rect x="163.76" y="326.99" width="102.25" height="11.17" fill="#000000"></rect>
    <path d="M266.51,338.65h-103.25v-12.17h103.25v12.17Zm-102.25-1h101.25v-10.17h-101.25v10.17Z" fill="#002346"></path>
  </g>
  <g>
    <rect x="121.48" y="363.88" width="31.37" height="31.49" fill="#000000"></rect>
    <path d="M153.35,395.86h-32.37v-32.49h32.37v32.49Zm-31.37-1h30.37v-30.49h-30.37v30.49Z" fill="#002346"></path>
  </g>
  <g>
    <rect x="163.51" y="363.88" width="78.04" height="11.17" fill="#e6e6e6"></rect>
    <path d="M242.05,375.54h-79.04v-12.17h79.04v12.17Zm-78.04-1h77.04v-10.17h-77.04v10.17Z" fill="#002346"></path>
  </g>
  <g>
    <rect x="163.51" y="384.2" width="102.25" height="11.17" fill="#000000"></rect>
    <path d="M266.26,395.86h-103.25v-12.17h103.25v12.17Zm-102.25-1h101.25v-10.17h-101.25v10.17Z" fill="#002346"></path>
  </g>
  <g>
    <rect x="121.48" y="410.04" width="144.54" height="20.95" fill="#001dc2"></rect>
    <path d="M266.52,431.5H120.98v-21.95h145.54v21.95Zm-144.54-1h143.54v-19.95H121.98v19.95Z" fill="#002346"></path>
  </g>
  <g>
    <path d="M147.7,501v25.47c.26,12.26-9.47,22.42-21.73,22.68-12.26,.26-22.42-9.47-22.68-21.73,0-.31,0-.63,0-.94v-25.47h44.41Z" fill="#000000"></path>
    <path d="M125.48,549.66c-5.88,0-11.44-2.23-15.7-6.31-4.38-4.2-6.86-9.85-6.99-15.91,0-.32,0-.64,0-.96v-25.96h45.41v25.97c.13,6.05-2.11,11.81-6.31,16.19s-9.85,6.86-15.91,6.99c-.17,0-.33,0-.49,0Zm-21.69-48.15v24.97c0,.32,0,.62,0,.93,.12,5.8,2.5,11.2,6.68,15.21,4.19,4.01,9.69,6.16,15.48,6.03,5.8-.12,11.2-2.5,15.21-6.68,4.01-4.19,6.15-9.69,6.03-15.48v-24.98h-43.41Z" fill="#002346"></path>
  </g>
  <g>
    <path d="M61.82,579.22c-8.9,0-16.12-7.22-16.12-16.12v-10.27H594.86v12.26c.02,7.78-6.27,14.11-14.05,14.13-.01,0-.03,0-.04,0H61.82Z" fill="#e6e7e8"></path>
    <path d="M580.81,579.72H61.82c-9.17,0-16.62-7.46-16.62-16.62v-10.78H595.37v12.77c.01,3.9-1.5,7.57-4.25,10.33s-6.41,4.29-10.31,4.3Zm-534.61-26.39v9.77c0,8.61,7,15.61,15.61,15.61H580.77c7.53-.02,13.61-6.13,13.58-13.62v-11.76H46.21Z" fill="#002346"></path>
  </g>
  <g>
    <path d="M594.42,548.06h237.5c4.4,0,7.97,3.57,7.97,7.97h0c0,4.4-3.57,7.96-7.97,7.96h-237.5c-4.4,0-7.97-3.57-7.97-7.97h0c0-4.4,3.57-7.96,7.97-7.96Z" fill="#e6e7e8"></path>
    <path d="M831.92,564.49h-237.5c-4.67,0-8.48-3.8-8.48-8.47s3.8-8.47,8.48-8.47h237.5c4.67,0,8.48,3.8,8.48,8.47s-3.8,8.47-8.48,8.47Zm-237.5-15.93c-4.12,0-7.46,3.35-7.46,7.46s3.35,7.46,7.46,7.46h237.5c4.12,0,7.46-3.35,7.46-7.46s-3.35-7.46-7.46-7.46h-237.5Z" fill="#002346"></path>
  </g>
  <g>
    <path d="M835.88,491.56v7.85c0,26.86-21.78,48.64-48.64,48.64h-16.4c-26.86,0-48.64-21.78-48.64-48.64v-7.85c0-1.51,1.22-2.73,2.73-2.73h108.22c1.13,0,2.14,.7,2.55,1.75,.12,.31,.18,.65,.18,.98Z" fill="#fff"></path>
    <path d="M787.24,548.56h-16.4c-27.1,0-49.15-22.05-49.15-49.15v-7.85c0-1.78,1.45-3.24,3.24-3.24h108.22c1.35,0,2.53,.82,3.02,2.07,.14,.38,.21,.77,.21,1.16v7.86c0,27.1-22.05,49.15-49.15,49.15Zm-62.31-59.22c-1.23,0-2.22,1-2.22,2.22v7.85c0,26.54,21.59,48.13,48.13,48.13h16.4c26.54,0,48.13-21.59,48.13-48.13v-7.85c0-.28-.05-.55-.15-.81-.33-.85-1.15-1.42-2.08-1.42h-108.22Z" fill="#002346"></path>
  </g>
  <g>
    <path d="M734.37,488.84v-40.36c-.02-2.37,1.09-4.6,3-6,1.77-1.22,3.94-1.71,6.06-1.36,0,0,5-.12,7.53,7.16v-59.44c.03-8.08,6.58-14.61,14.66-14.62h0c8.1,0,14.67,6.57,14.67,14.67v99.92l-45.92,.03Z" fill="#7cd295"></path>
    <path d="M733.87,489.34v-40.86c-.02-2.51,1.18-4.91,3.2-6.4,1.9-1.31,4.18-1.82,6.44-1.45,.11-.01,4.2-.04,6.95,5.22v-57c.03-8.33,6.83-15.11,15.16-15.12,8.37,0,15.17,6.81,15.17,15.17v100.42l-46.92,.03Zm8.23-47.83c-1.61,0-3.14,.47-4.45,1.38-1.76,1.29-2.8,3.39-2.78,5.58v39.86l44.92-.03v-99.42c0-7.81-6.36-14.17-14.17-14.17-7.78,0-14.13,6.34-14.16,14.12v62.4l-.97-2.8c-2.37-6.81-6.85-6.82-7.05-6.82-.45-.07-.9-.11-1.34-.11Z" fill="#002346"></path>
  </g>
  <g>
    <path d="M794.41,399.01h0c7.79,0,14.11,6.32,14.11,14.11v75.59h-28.23v-75.59c0-7.79,6.32-14.11,14.11-14.11h.01Z" fill="#7cd295"></path>
    <path d="M809.02,489.21h-29.23v-76.09c0-8.06,6.55-14.61,14.61-14.61h0c8.06,0,14.61,6.55,14.61,14.61v76.09Zm-28.23-1h27.23v-75.09c0-7.5-6.11-13.61-13.61-13.61h0c-7.5,0-13.61,6.11-13.61,13.61v75.09Z" fill="#002346"></path>
  </g>
  <g>
    <path d="M816.37,431.75h0c4.33,0,7.84,3.51,7.84,7.84h0v49.12h-15.69v-49.11c0-4.33,3.5-7.84,7.83-7.85h.02Z" fill="#7cd295"></path>
    <path d="M824.71,489.21h-16.69v-49.61c0-2.23,.86-4.32,2.44-5.9s3.67-2.45,5.89-2.45h.02c4.6,0,8.34,3.74,8.34,8.34v49.62Zm-15.69-1h14.69v-48.62c0-4.05-3.29-7.34-7.34-7.34h-.02c-1.96,0-3.8,.77-5.19,2.16s-2.15,3.23-2.14,5.19v48.61Z" fill="#002346"></path>
  </g>
  <g>
    <path d="M675.34,145.07c-43.55,.08-78.8,35.45-78.72,79,.08,43.55,35.45,78.8,79,78.72,43.5-.08,78.73-35.37,78.72-78.87-.03-43.58-35.39-78.88-78.97-78.85-.01,0-.02,0-.03,0Zm-.94,150.55c-40.26,0-72.89-32.18-72.89-71.89s32.63-71.89,72.89-71.89,72.9,32.19,72.9,71.89-32.64,71.89-72.9,71.89Z" fill="#002346"></path>
    <path d="M675.48,303.28c-21.14,0-41.03-8.22-56.01-23.14-15.02-14.96-23.31-34.88-23.34-56.07s8.18-41.14,23.14-56.16c14.96-15.02,34.88-23.31,56.07-23.34h.09c21.19,0,41.11,8.24,56.11,23.22,15.01,14.99,23.29,34.92,23.3,56.13,0,43.69-35.53,79.29-79.22,79.37h-.14Zm-.14-158.22v.5c-20.93,.04-40.59,8.22-55.37,23.05s-22.89,34.52-22.85,55.45,8.22,40.59,23.05,55.37c14.79,14.74,34.43,22.85,55.31,22.85h.14c43.14-.08,78.23-35.23,78.22-78.37-.02-20.94-8.19-40.63-23.01-55.43-14.81-14.78-34.48-22.92-55.4-22.92h-.06l-.03-.5Zm-.94,151.05c-40.47,0-73.39-32.47-73.39-72.39s32.92-72.39,73.39-72.39,73.4,32.47,73.4,72.39-32.93,72.39-73.4,72.39Zm0-143.78c-39.92,0-72.39,32.03-72.39,71.39s32.47,71.39,72.39,71.39,72.4-32.03,72.4-71.39-32.48-71.39-72.4-71.39Z" fill="#002346"></path>
  </g>
  <g>
    <path d="M741.23,275.97c28.44-36.44,21.96-89.04-14.48-117.48-36.44-28.44-89.04-21.96-117.48,14.48-28.44,36.44-21.96,89.04,14.48,117.48,26.43,20.63,62.63,23.5,91.98,7.28l-7.86-15.29c-32.21,18.12-73,6.7-91.12-25.51-18.12-32.21-6.7-73,25.51-91.12,32.21-18.12,73-6.7,91.12,25.51,12.88,22.9,11.17,51.22-4.38,72.4l12.23,12.25Z" fill="#000000"></path>
    <path d="M675.24,308.69c-18.38,0-36.65-6.03-51.8-17.85-17.73-13.84-29.01-33.75-31.76-56.07s3.35-44.38,17.19-62.11c28.57-36.6,81.58-43.13,118.18-14.57,36.6,28.57,43.13,81.58,14.57,118.18l-.35,.45-12.93-12.95,.25-.35c15.4-20.98,17.1-49.18,4.35-71.86-8.7-15.46-22.9-26.61-39.98-31.39-17.08-4.78-35-2.63-50.46,6.07-15.46,8.7-26.61,22.9-31.39,39.98-4.78,17.08-2.63,35,6.07,50.46,17.96,31.92,58.53,43.27,90.44,25.32l.45-.25,8.32,16.18-.42,.23c-12.76,7.05-26.78,10.52-40.73,10.53Zm.1-167.39c-24.77,0-49.29,10.98-65.68,31.97-13.67,17.52-19.71,39.31-16.99,61.37s13.86,41.73,31.38,55.41c26.19,20.44,61.86,23.36,91.01,7.47l-7.4-14.4c-32.33,17.87-73.21,6.29-91.35-25.95-8.83-15.69-11.02-33.88-6.16-51.22s16.17-31.75,31.86-40.58c32.39-18.22,73.58-6.7,91.8,25.7,12.88,22.89,11.24,51.34-4.16,72.6l11.53,11.55c27.83-36.15,21.28-88.22-14.74-116.33-15.17-11.84-33.2-17.58-51.1-17.58Z" fill="#002346"></path>
  </g>
  <g>
    <path d="M657.21,266.76h37.26c.76,0,1.38,.62,1.38,1.38h0c0,.76-.62,1.38-1.38,1.38h-37.26c-.76,0-1.38-.62-1.38-1.38h0c0-.76,.62-1.38,1.38-1.38Z" fill="#002346"></path>
    <path d="M694.47,270.02h-37.26c-1.04,0-1.88-.84-1.88-1.88s.84-1.88,1.88-1.88h37.26c1.04,0,1.88,.84,1.88,1.88s-.84,1.88-1.88,1.88Zm-37.26-2.76c-.49,0-.88,.39-.88,.88s.39,.88,.88,.88h37.26c.49,0,.88-.39,.88-.88s-.4-.88-.88-.88h-37.26Z" fill="#002346"></path>
  </g>
  <g>
    <path d="M669.08,251.84h12.77c.48,0,.78-.52,.54-.94l-6.33-11.16c-.24-.42-.85-.42-1.09,0l-6.44,11.16c-.24,.42,.06,.94,.54,.94Z" fill="#000000"></path>
    <path d="M681.86,252.34h-12.77c-.41,0-.77-.21-.98-.56-.2-.35-.2-.77,0-1.13l6.44-11.16c.2-.35,.58-.54,.98-.56,.41,0,.77,.21,.98,.57l6.33,11.16c.2,.35,.2,.77,0,1.12-.2,.35-.57,.56-.97,.56Zm-6.33-12.42s-.08,.01-.11,.06l-6.44,11.16c-.03,.05-.02,.1,0,.13s.05,.06,.11,.06h12.77c.06,0,.09-.03,.11-.06,.02-.03,.03-.07,0-.13l-6.33-11.16c-.03-.05-.08-.06-.11-.06h0Z" fill="#002346"></path>
  </g>
  <g>
    <rect x="673.4" y="217.08" width="4.27" height="14.8" fill="#002346"></rect>
    <path d="M678.17,232.38h-5.27v-15.8h5.27v15.8Zm-4.27-1h3.27v-13.8h-3.27v13.8Z" fill="#002346"></path>
  </g>
  <g>
    <rect x="701.25" y="217.21" width="4.27" height="14.8" fill="#002346"></rect>
    <path d="M706.02,232.5h-5.27v-15.8h5.27v15.8Zm-4.27-1h3.27v-13.8h-3.27v13.8Z" fill="#002346"></path>
  </g>
  <g>
    <rect x="728.85" y="217.21" width="4.27" height="14.8" fill="#002346"></rect>
    <path d="M733.62,232.5h-5.27v-15.8h5.27v15.8Zm-4.27-1h3.27v-13.8h-3.27v13.8Z" fill="#002346"></path>
  </g>
  <g>
    <rect x="682.31" y="220.35" width="1.76" height="8.41" fill="#002346"></rect>
    <path d="M684.57,229.25h-2.76v-9.41h2.76v9.41Zm-1.76-1h.76v-7.41h-.76v7.41Z" fill="#002346"></path>
  </g>
  <g>
    <rect x="688.2" y="220.35" width="1.76" height="8.41" fill="#002346"></rect>
    <path d="M690.46,229.25h-2.76v-9.41h2.76v9.41Zm-1.76-1h.76v-7.41h-.76v7.41Z" fill="#002346"></path>
  </g>
  <g>
    <rect x="693.97" y="220.35" width="1.76" height="8.41" fill="#002346"></rect>
    <path d="M696.23,229.25h-2.76v-9.41h2.76v9.41Zm-1.76-1h.76v-7.41h-.76v7.41Z" fill="#002346"></path>
  </g>
  <g>
    <rect x="710.29" y="220.22" width="1.76" height="8.41" fill="#002346"></rect>
    <path d="M712.55,229.13h-2.76v-9.41h2.76v9.41Zm-1.76-1h.76v-7.41h-.76v7.41Z" fill="#002346"></path>
  </g>
  <g>
    <rect x="716.18" y="220.22" width="1.76" height="8.41" fill="#002346"></rect>
    <path d="M718.44,229.13h-2.76v-9.41h2.76v9.41Zm-1.76-1h.76v-7.41h-.76v7.41Z" fill="#002346"></path>
  </g>
  <g>
    <rect x="721.95" y="220.22" width="1.76" height="8.41" fill="#002346"></rect>
    <path d="M724.21,229.13h-2.76v-9.41h2.76v9.41Zm-1.76-1h.76v-7.41h-.76v7.41Z" fill="#002346"></path>
  </g>
  <g>
    <rect x="737.76" y="220.35" width="1.76" height="8.41" fill="#002346"></rect>
    <path d="M740.02,229.25h-2.76v-9.41h2.76v9.41Zm-1.76-1h.76v-7.41h-.76v7.41Z" fill="#002346"></path>
  </g>
  <g>
    <rect x="671.64" y="125.37" width="5.52" height="17.06" fill="#002346"></rect>
    <path d="M677.66,142.92h-6.52v-18.06h6.52v18.06Zm-5.52-1h4.52v-16.06h-4.52v16.06Z" fill="#002346"></path>
  </g>
  <g>
    <path d="M632.37,326.11h88.58c5.34,0,9.66,4.32,9.66,9.66h0c0,5.34-4.32,9.66-9.66,9.66h-88.58c-5.34,0-9.66-4.32-9.66-9.66h0c0-5.34,4.32-9.66,9.66-9.66Z" fill="#e6e6e6"></path>
    <path d="M720.95,345.92h-88.58c-5.6,0-10.16-4.56-10.16-10.16s4.56-10.16,10.16-10.16h88.58c5.6,0,10.16,4.56,10.16,10.16s-4.56,10.16-10.16,10.16Zm-88.58-19.32c-5.05,0-9.16,4.11-9.16,9.16s4.11,9.16,9.16,9.16h88.58c5.05,0,9.16-4.11,9.16-9.16s-4.11-9.16-9.16-9.16h-88.58Z" fill="#002346"></path>
  </g>
  <g>
    <path d="M391.29,143.18h180.28c5.65,0,10.23,4.58,10.23,10.23h0c0,5.65-4.58,10.22-10.23,10.22h-180.28c-5.65,0-10.23-4.58-10.23-10.23h0c0-5.65,4.58-10.22,10.23-10.22Z" fill="#e6e6e6"></path>
    <path d="M571.57,164.13h-180.28c-5.92,0-10.73-4.81-10.73-10.73s4.81-10.73,10.73-10.73h180.28c5.92,0,10.73,4.81,10.73,10.73s-4.81,10.73-10.73,10.73Zm-180.28-20.45c-5.37,0-9.73,4.36-9.73,9.73s4.36,9.73,9.73,9.73h180.28c5.37,0,9.73-4.36,9.73-9.73s-4.36-9.73-9.73-9.73h-180.28Z" fill="#002346"></path>
  </g>
  <g>
    <path d="M491.6,193.37l-.5,14.18v5c-7.29,41.73-36.1,45.18-36.1,45.18-26.41,4.25-38.43-12.36-43.53-24-2.28-5.14-3.46-10.7-3.47-16.33v-39.76l9.79-.45s4-21.33,17.31-31.62c0,0-5.77,14.93-6.77,30h21.45s1.76-24.71-1.63-33.37c.13,.15,8.42,9.59,10.29,32.24h18.57s.62-13.67-5.9-23.33c0,0,5.77,5,9.28,18.32,.04-.02,6.19,18.17,11.21,23.94Z" fill="#f2b3c1"></path>
    <path d="M446.9,258.9c-21.48,0-31.6-15.19-35.89-24.98-2.32-5.24-3.5-10.8-3.51-16.53v-40.24l9.88-.45c.63-2.96,5.1-22.01,17.42-31.53l1.42-1.1-.65,1.67c-.06,.15-5.62,14.68-6.7,29.32h20.45c.22-3.43,1.43-24.88-1.63-32.69l-1.06-2.71,1.9,2.2c.35,.4,8.45,9.95,10.37,32.07h17.62c.03-2.49-.15-14.15-5.83-22.55l-2.11-3.13,2.86,2.48c.24,.21,5.93,5.25,9.44,18.57,.05,.13,.12,.32,.22,.6,4.18,11.67,8.05,19.89,10.88,23.15l.13,.15-.51,14.38v4.98c-7.28,41.7-36.25,45.64-36.54,45.68-2.88,.46-5.6,.68-8.16,.68Zm-38.4-80.79v39.28c.01,5.59,1.17,11.02,3.43,16.13,4.68,10.69,16.5,27.97,42.99,23.71,.3-.04,28.55-3.92,35.69-44.77v-4.91s.49-14,.49-14c-2.94-3.48-6.72-11.54-10.94-23.32-.06-.17-.11-.31-.15-.41h-.03s-.07-.26-.07-.26c-1.67-6.33-3.87-10.78-5.69-13.67,3.68,8.82,3.3,18.46,3.29,18.58l-.02,.48h-19.51l-.04-.46c-1.33-16.14-5.95-25.52-8.48-29.57,2.24,10.16,.88,29.78,.82,30.7l-.03,.46h-22.45l.04-.53c.8-12.01,4.65-24.04,6.18-28.42-11.91,10.42-15.69,29.96-15.73,30.17l-.07,.39-9.71,.45Z" fill="#002346"></path>
  </g>
  <g>
    <path d="M605.15,351.46c-39.53-66.25-114-77.16-114-77.16v-66.75l.5-14.18c-5-5.77-11.17-24-11.17-24-3.51-13.3-9.28-18.32-9.28-18.32,6.52,9.66,5.9,23.33,5.9,23.33h-18.62c-1.87-22.65-10.16-32.09-10.29-32.24,3.39,8.66,1.63,33.37,1.63,33.37h-21.45c1-15.05,6.77-30,6.77-30-13.3,10.35-17.31,31.71-17.31,31.71l-9.79,.45-11.92,.55c2.89-26,13.05-37.52,13.05-37.52-14.21,12.13-16.43,32.28-16.76,37-.02,.28-.14,.55-.34,.75-.2,.21-.46,.34-.74,.37-.66,.07-1.26-.41-1.33-1.07,0-.06,0-.11,0-.17,.64-28.14,24.57-44.66,24.57-44.66,16.31-14.06,29.86-8.41,29.86-8.41-11.66-12.55,.88-20.83,.88-20.83-3,14.81,7.28,19.32,7.28,19.32,56.58-20.7,65.87,57.09,65.87,57.09l1.88,20.45c1.75,18.32,21.87,39.43,34,50.59,4.13,3.79,8.49,7.31,13.07,10.54,16.18,11.49,28.74,29.21,28.74,29.21,27.07,33.1,9.01,60.58,9.01,60.58Z" fill="#002346"></path>
    <path d="M605.13,352.4l-.41-.69c-20.35-34.1-50.15-53.2-71.58-63.21-23.23-10.86-41.88-13.68-42.07-13.71l-.43-.06v-67.18l.49-14c-4.98-5.93-10.89-23.27-11.14-24.02-1.67-6.33-3.87-10.77-5.69-13.68,3.67,8.81,3.29,18.43,3.28,18.55l-.02,.48h-19.56l-.04-.46c-1.33-16.12-5.95-25.51-8.48-29.57,2.24,10.17,.88,29.78,.82,30.69l-.03,.46h-22.45l.04-.53c.8-11.98,4.65-24.02,6.18-28.41-11.89,10.48-15.69,30.04-15.73,30.25l-.07,.39-22.69,1.04,.06-.58c1.9-17.12,7.02-28.09,10.28-33.58-10.98,12.22-12.74,29.52-13,33.15-.02,.4-.2,.79-.49,1.07-.26,.28-.63,.46-1.03,.51-.46,.05-.9-.08-1.26-.37-.36-.29-.58-.69-.63-1.15,0-.08-.01-.16,0-.23,.64-28.07,24.54-44.89,24.79-45.06,12.99-11.2,24.43-9.96,28.63-8.97-3-3.66-4.3-7.31-3.88-10.88,.7-5.85,5.77-9.26,5.99-9.4l1-.66-.24,1.18c-2.67,13.2,5.51,18,6.82,18.68,14.26-5.17,26.79-4.54,37.24,1.88,23.94,14.7,29.04,55.28,29.09,55.69l1.88,20.46c1.74,18.25,21.95,39.33,33.84,50.27,4.1,3.76,8.48,7.29,13.02,10.5,16.06,11.41,28.73,29.15,28.86,29.33,26.97,32.98,9.2,60.87,9.02,61.14l-.44,.67Zm-113.48-78.53c2.93,.49,20.48,3.71,41.89,13.71,21.41,10,51.14,29.02,71.61,62.9,2.51-4.48,14.75-29.76-9.39-59.29-.15-.2-12.72-17.81-28.64-29.12-4.58-3.23-8.99-6.79-13.12-10.58-12-11.04-32.38-32.33-34.16-50.91l-1.88-20.45c-.05-.39-5.1-40.5-28.62-54.94-10.23-6.28-22.54-6.86-36.58-1.72l-.19,.07-.18-.08c-.1-.05-10-4.57-7.8-18.57-1.47,1.28-4.09,4.05-4.55,7.9-.44,3.68,1.16,7.51,4.76,11.38l1.56,1.68-2.12-.88c-.13-.06-13.48-5.35-29.34,8.33-.28,.2-23.77,16.74-24.4,44.29v.1c.02,.19,.12,.36,.26,.48,.15,.12,.34,.17,.52,.15,.16-.02,.32-.09,.43-.22,.13-.13,.2-.28,.21-.44,.4-5.72,2.8-25.29,16.93-37.35l.7,.71c-.1,.11-9.94,11.55-12.86,36.66l20.74-.96c.63-2.96,5.11-22.05,17.41-31.62l1.42-1.11-.65,1.68c-.06,.15-5.62,14.7-6.7,29.32h20.45c.22-3.43,1.43-24.88-1.63-32.69l-1.06-2.72,1.91,2.21c.35,.4,8.45,9.97,10.37,32.07h17.67c.03-2.49-.15-14.15-5.83-22.55l-2.13-3.16,2.87,2.5c.24,.21,5.93,5.27,9.44,18.57,.05,.15,6.19,18.17,11.06,23.8l.13,.15-.51,14.38v66.31Z" fill="#002346"></path>
  </g>
  <g>
    <path d="M479.37,195.44l15-4.16c.65-.17,1.31,.21,1.48,.86,.01,.05,.02,.09,.03,.14h0c.09,.6-.28,1.18-.86,1.34l-14.65,4.22-1-2.4Z" fill="#000000"></path>
    <path d="M480.08,198.44l-1.39-3.33,15.55-4.31c.45-.12,.91-.06,1.3,.17,.4,.23,.68,.6,.8,1.04,.02,.07,.03,.13,.04,.2,.13,.84-.39,1.66-1.22,1.89l-15.08,4.34Zm-.03-2.67l.61,1.47,14.22-4.1c.34-.1,.56-.43,.5-.78-.07-.27-.18-.43-.35-.52-.16-.09-.35-.12-.54-.07l-14.45,4.01Z" fill="#002346"></path>
  </g>
  <g>
    <ellipse cx="498.63" cy="205.73" rx="13.8" ry="13.99" fill="#f2b3c1"></ellipse>
    <path d="M498.63,220.21c-7.88,0-14.3-6.5-14.3-14.49s6.42-14.49,14.3-14.49,14.3,6.5,14.3,14.49-6.42,14.49-14.3,14.49Zm0-27.98c-7.33,0-13.3,6.05-13.3,13.49s5.97,13.49,13.3,13.49,13.3-6.05,13.3-13.49-5.97-13.49-13.3-13.49Z" fill="#002346"></path>
  </g>
  <g>
    <path d="M455.09,300.14c-10.48,3.57-18.65,11.91-22,22.46-10.03-24.13,.85-39.46,2.85-41.98,.13-.16,.37-.1,.43,.1,2.49,9.25,9.55,16.59,18.73,19.42Z" fill="#001dc2"></path>
    <path d="M433.15,324.05l-.52-1.26c-10.07-24.24,.66-39.64,2.92-42.48,.17-.22,.45-.32,.73-.27,.28,.06,.5,.27,.57,.55,2.46,9.15,9.33,16.28,18.39,19.07l1.47,.45-1.46,.5c-10.29,3.5-18.39,11.78-21.68,22.14l-.41,1.3Zm2.86-42.72c-2.66,3.55-11.58,17.8-2.96,39.83,3.47-9.6,11.01-17.32,20.53-21-8.55-3.11-15.04-10.03-17.56-18.82Z" fill="#002346"></path>
  </g>
  <g>
    <path d="M455.85,300.36s15.93,15.21,17.68,27.13c0,0,13.84-12.08,17.27-23,0,0,4.47-16.66-.31-30.12-.04-.1-.19-.09-.21,.02-.6,3.66-5.85,29.68-34.43,25.97Z" fill="#001dc2"></path>
    <path d="M473.17,328.46l-.13-.91c-1.71-11.62-17.37-26.69-17.53-26.84l-1.1-1.05,1.51,.2c27.67,3.59,33.07-20.66,33.87-25.56,.04-.27,.27-.48,.55-.51,.26-.03,.54,.14,.63,.4,4.78,13.45,.37,30.25,.32,30.42-3.44,10.95-16.85,22.75-17.42,23.25l-.69,.6Zm-15.94-27.45c3.5,3.53,14.61,15.37,16.64,25.49,2.79-2.57,13.54-12.88,16.46-22.17,.04-.14,4.07-15.5,.16-28.4-1.41,6.35-8.02,27.54-33.25,25.08Zm33.54-26.56s0,0,0,0t0,0Z" fill="#002346"></path>
  </g>
  <g>
    <path d="M33.84,548.06H610.1c4.4,0,7.97,3.57,7.97,7.97h0c0,4.4-3.57,7.96-7.97,7.96H33.84c-4.4,0-7.97-3.57-7.97-7.97h0c0-4.4,3.57-7.96,7.97-7.96Z" fill="#fff"></path>
    <path d="M610.1,564.49H33.84c-4.67,0-8.48-3.8-8.48-8.47s3.8-8.47,8.48-8.47H610.1c4.67,0,8.48,3.8,8.48,8.47s-3.8,8.47-8.48,8.47Zm-576.26-15.93c-4.12,0-7.46,3.35-7.46,7.46s3.35,7.46,7.46,7.46H610.1c4.12,0,7.46-3.35,7.46-7.46s-3.35-7.46-7.46-7.46H33.84Z" fill="#002346"></path>
  </g>
  <g>
    <path d="M103.47,248.01v195.21H58.31c-7.42,0-13.43-6.01-13.43-13.43v-168.35c0-7.42,6.01-13.43,13.43-13.43h45.16Z" fill="#000000"></path>
    <path d="M103.97,443.71H58.31c-7.68,0-13.93-6.25-13.93-13.93v-168.35c0-7.68,6.25-13.93,13.93-13.93h45.66v196.21ZM58.31,248.5c-7.13,0-12.93,5.8-12.93,12.93v168.35c0,7.13,5.8,12.93,12.93,12.93h44.66V248.5H58.31Z" fill="#002346"></path>
  </g>
  <g>
    <path d="M53.91,287.85h24.97c2.04,0,3.7,1.66,3.7,3.7h0c0,2.04-1.66,3.7-3.7,3.7h-24.97c-2.04,0-3.7-1.66-3.7-3.7h0c0-2.04,1.66-3.7,3.7-3.7Z" fill="#fff"></path>
    <path d="M78.88,295.75h-24.97c-2.32,0-4.21-1.89-4.21-4.21s1.89-4.21,4.21-4.21h24.97c2.32,0,4.21,1.89,4.21,4.21s-1.89,4.21-4.21,4.21Zm-24.97-7.4c-1.76,0-3.19,1.43-3.19,3.19s1.43,3.19,3.19,3.19h24.97c1.76,0,3.19-1.43,3.19-3.19s-1.43-3.19-3.19-3.19h-24.97Z" fill="#002346"></path>
  </g>
  <g>
    <circle cx="55.8" cy="261.94" r="2.95" fill="#fff"></circle>
    <path d="M55.8,265.39c-1.91,0-3.46-1.55-3.46-3.46s1.55-3.46,3.46-3.46,3.46,1.55,3.46,3.46-1.55,3.46-3.46,3.46Zm0-5.9c-1.35,0-2.44,1.1-2.44,2.44s1.1,2.44,2.44,2.44,2.44-1.1,2.44-2.44-1.1-2.44-2.44-2.44Z" fill="#002346"></path>
  </g>
  <g>
    <circle cx="64.96" cy="262.06" r="2.95" transform="translate(-199.11 318.26) rotate(-88.09)" fill="#fff"></circle>
    <path d="M64.96,265.51c-1.91,0-3.46-1.55-3.46-3.46s1.55-3.46,3.46-3.46,3.46,1.55,3.46,3.46-1.55,3.46-3.46,3.46Zm0-5.9c-1.35,0-2.44,1.1-2.44,2.44s1.1,2.44,2.44,2.44,2.44-1.1,2.44-2.44-1.1-2.44-2.44-2.44Z" fill="#002346"></path>
  </g>
  <g>
    <circle cx="74.11" cy="262.19" r="2.95" fill="#fff"></circle>
    <path d="M74.11,265.64c-1.91,0-3.46-1.55-3.46-3.46s1.55-3.46,3.46-3.46,3.46,1.55,3.46,3.46-1.55,3.46-3.46,3.46Zm0-5.9c-1.35,0-2.44,1.1-2.44,2.44s1.1,2.44,2.44,2.44,2.44-1.1,2.44-2.44-1.1-2.44-2.44-2.44Z" fill="#002346"></path>
  </g>
  <g>
    <polygon points="645.67 139.42 658.22 149.83 655.46 169.53 675.22 157.24 693.6 169.53 689.71 150.09 703.13 139.42 645.67 139.42" fill="#e6e6e6"></polygon>
    <path d="M694.33,170.61l-19.12-12.78-20.39,12.68,2.87-20.48-13.4-11.12h60.28l-14.3,11.37,4.07,20.33Zm-47.27-30.7l11.7,9.7-2.65,18.92,19.13-11.9,17.64,11.8-3.71-18.55,12.54-9.97h-54.64Z" fill="#002346"></path>
  </g>
  <g opacity=".32">
    <ellipse cx="414.29" cy="200.16" rx="17.43" ry="17.5" transform="translate(211.53 613.18) rotate(-89.64)" fill="#fff"></ellipse>
  </g>
  <g opacity=".32">
    <ellipse cx="461.71" cy="200.15" rx="17.14" ry="17.2" transform="translate(258.66 660.59) rotate(-89.64)" fill="#fff"></ellipse>
  </g>
  <g>
    <path d="M461.74,181.08c-9.53-.01-17.6,7.02-18.9,16.46h0c-4-3.26-9-.67-9.64-.29-1.63-10.37-11.35-17.45-21.72-15.82-10.37,1.63-17.45,11.35-15.82,21.72,1.63,10.37,11.35,17.45,21.72,15.82,9.22-1.45,16.03-9.38,16.05-18.72,4.65-3.83,9.29-.13,9.29-.13-.04,10.53,8.47,19.1,19,19.14,10.53,.04,19.1-8.47,19.14-19,.04-10.53-8.47-19.1-19-19.14-.02,0-.05,0-.07,0l-.05-.04Zm-47.43,35.75c-9.18-.03-16.6-7.51-16.57-16.69,.03-9.18,7.51-16.6,16.69-16.57,9.17,.03,16.58,7.48,16.57,16.65-.02,9.2-7.49,16.63-16.69,16.61h0Zm47.43-.12c-9.18-.03-16.6-7.51-16.57-16.69,.03-9.18,7.51-16.6,16.69-16.57,9.16,.03,16.57,7.47,16.57,16.63-.02,9.2-7.49,16.65-16.69,16.63h0Z" fill="#000000"></path>
    <path d="M461.79,219.75h-.07c-10.71-.04-19.4-8.71-19.5-19.39-.87-.61-4.54-2.81-8.29,.12-.14,9.53-7.03,17.49-16.47,18.97-5.15,.81-10.3-.44-14.51-3.5-4.21-3.07-6.97-7.59-7.78-12.74-1.67-10.62,5.62-20.62,16.24-22.29,10.39-1.63,20.2,5.31,22.17,15.57,1.51-.69,5.44-2.1,8.9,.15,1.67-9.22,9.79-16.07,19.24-16.07h.03l.22,.04c10.78,.13,19.43,8.91,19.4,19.64-.04,10.77-8.81,19.5-19.57,19.5Zm-23.81-21.74c2.87,0,5.02,1.68,5.06,1.71l.19,.15v.24c-.04,10.24,8.26,18.6,18.5,18.64h.07c10.21,0,18.53-8.28,18.57-18.5,.02-4.96-1.9-9.63-5.39-13.15-3.49-3.52-8.15-5.47-13.11-5.49l-.25-.04c-9.18,.05-17.03,6.92-18.28,16.03l-.12,.88-.69-.56c-3.95-3.22-9.02-.28-9.07-.25l-.63,.38-.11-.73c-1.58-10.08-11.06-16.99-21.15-15.41-10.08,1.58-16.99,11.07-15.41,21.15,.77,4.88,3.39,9.17,7.38,12.08,3.99,2.91,8.88,4.09,13.76,3.32,9.03-1.42,15.6-9.08,15.63-18.23v-.23s.18-.15,.18-.15c1.68-1.38,3.37-1.84,4.86-1.84Zm-23.62,19.31h-.04c-4.58-.02-8.87-1.81-12.09-5.06-3.22-3.25-4.99-7.56-4.97-12.13,.02-4.58,1.81-8.87,5.06-12.09,3.23-3.21,7.52-4.97,12.07-4.97h.06c9.42,.03,17.08,7.73,17.07,17.15-.01,4.58-1.81,8.88-5.05,12.12-3.24,3.22-7.53,4.99-12.1,4.99Zm-.04-1h.04c4.3,0,8.34-1.67,11.39-4.7,3.06-3.04,4.75-7.09,4.76-11.41,.01-8.87-7.2-16.12-16.07-16.15h-.06c-8.87,0-16.1,7.2-16.13,16.07-.02,4.31,1.65,8.36,4.68,11.42s7.08,4.75,11.39,4.77h0Zm47.46,.88h-.03c-9.45-.03-17.1-7.75-17.07-17.19,.02-4.58,1.81-8.87,5.06-12.09,3.25-3.22,7.52-4.98,12.13-4.97,9.41,.03,17.07,7.72,17.07,17.13,0,4.58-1.8,8.89-5.05,12.13-3.24,3.23-7.54,5-12.11,5Zm-.03-1h.03c4.31,0,8.35-1.67,11.41-4.71,3.06-3.05,4.75-7.1,4.75-11.42,0-8.86-7.21-16.1-16.07-16.13h-.06c-8.87,0-16.1,7.2-16.13,16.07-.03,8.89,7.18,16.16,16.07,16.19h0Z" fill="#002346"></path>
  </g>
  <circle cx="482.13" cy="538.84" r="3.07" fill="#002346"></circle>
  <g>
    <path d="M457.22,506.43l20.42-7.56s24.24,17.68,10.8,49.36h-21.44s8.44-30.53-9.78-41.8Z" fill="#fff"></path>
    <path d="M488.77,548.74h-22.44l.18-.64c.08-.3,8.13-30.3-9.56-41.24l-.88-.54,21.64-8.01,.22,.16c.25,.18,24.41,18.29,10.97,49.96l-.13,.31Zm-21.13-1.01h20.46c12.18-29.16-8.22-46.44-10.55-48.28l-19.21,7.11c15.81,10.79,10.37,36.76,9.31,41.17Z" fill="#002346"></path>
  </g>
  <path d="M477.64,499.38c-.2,0-.4-.13-.47-.33-.09-.26,.04-.55,.3-.64l77.33-28.07c.25-.11,28.55-12.4,53.22,1.77,.24,.14,.32,.44,.18,.68-.14,.24-.44,.32-.68,.18-24.22-13.91-52.07-1.83-52.35-1.71l-77.36,28.08c-.06,.02-.11,.03-.17,.03Z" fill="#002346"></path>
  <path d="M545.96,400.31c-.24,0-.45-.17-.49-.41-.03-.14-2.61-14.53,1.15-30.41,3.48-14.7,13.23-33.73,39.97-40.93,.27-.07,.54,.09,.61,.35s-.09,.54-.35,.61c-26.24,7.07-35.83,25.74-39.24,40.17-3.72,15.68-1.17,29.89-1.14,30.03,.05,.27-.13,.53-.4,.58-.03,0-.06,0-.09,0Z" fill="#002346"></path>
  <path d="M347,509.73s-.04,0-.06,0c-.27-.04-.47-.29-.43-.56l9.36-72.15c.97-7.46,2.24-14.96,3.79-22.31,7.4-35.12,12.32-56.61,12.37-56.83,5.94-32.97,18.94-51.27,19.07-51.45,.16-.22,.47-.28,.7-.11,.22,.16,.27,.47,.11,.7-.13,.18-13.01,18.31-18.9,51.06-.05,.24-4.98,21.72-12.37,56.83-1.54,7.32-2.81,14.8-3.78,22.23l-9.36,72.15c-.03,.25-.25,.44-.5,.44Z" fill="#002346"></path>
  <path d="M80,305.54h-21.88c-.28,0-.51-.23-.51-.51s.23-.51,.51-.51h21.88c.28,0,.51,.23,.51,.51s-.23,.51-.51,.51Z" fill="#002346"></path>
  <path d="M80,315.54h-21.88c-.28,0-.51-.23-.51-.51s.23-.51,.51-.51h21.88c.28,0,.51,.23,.51,.51s-.23,.51-.51,.51Z" fill="#002346"></path>
  <path d="M80,325.54h-21.88c-.28,0-.51-.23-.51-.51s.23-.51,.51-.51h21.88c.28,0,.51,.23,.51,.51s-.23,.51-.51,.51Z" fill="#002346"></path>
  <path d="M275.67,295.23H119.42c-.28,0-.51-.23-.51-.51s.23-.51,.51-.51h156.25c.28,0,.51,.23,.51,.51s-.23,.51-.51,.51Z" fill="#002346"></path>
  <path d="M275.67,349.23H119.42c-.28,0-.51-.23-.51-.51s.23-.51,.51-.51h156.25c.28,0,.51,.23,.51,.51s-.23,.51-.51,.51Z" fill="#002346"></path>
  <path d="M256,284.24c-6.62,0-12.01-5.39-12.01-12.01s5.39-12.01,12.01-12.01,12.01,5.39,12.01,12.01-5.39,12.01-12.01,12.01Zm0-23c-6.06,0-10.99,4.93-10.99,10.99s4.93,10.99,10.99,10.99,10.99-4.93,10.99-10.99-4.93-10.99-10.99-10.99Z" fill="#002346"></path>
  <path d="M832.31,497.75h-106.53c-.28,0-.5-.22-.5-.5s.22-.5,.5-.5h106.53c.28,0,.5,.22,.5,.5s-.22,.5-.5,.5Z" fill="#002346"></path>
  <path d="M832.31,504.75h-106.53c-.28,0-.5-.22-.5-.5s.22-.5,.5-.5h106.53c.28,0,.5,.22,.5,.5s-.22,.5-.5,.5Z" fill="#002346"></path>
  <path d="M742.28,488.82c-.28,0-.5-.22-.5-.5v-38.89c0-.28,.22-.5,.5-.5s.5,.22,.5,.5v38.89c0,.28-.22,.5-.5,.5Z" fill="#002346"></path>
  <path d="M765.86,489.4c-.28,0-.5-.22-.5-.5v-98.36c0-.28,.22-.5,.5-.5s.5,.22,.5,.5v98.36c0,.28-.22,.5-.5,.5Z" fill="#002346"></path>
  <path d="M794.79,488.63c-.28,0-.5-.22-.5-.5v-75.52c0-.28,.22-.5,.5-.5s.5,.22,.5,.5v75.52c0,.28-.22,.5-.5,.5Z" fill="#002346"></path>
  <path d="M816.36,488.73c-.27,0-.5-.22-.5-.5v-45c0-.27,.22-.5,.5-.5s.5,.22,.5,.5v45c0,.27-.22,.5-.5,.5Z" fill="#002346"></path>
  <path d="M365.8,514.29c-.11,0-.23-.04-.32-.12-.21-.18-.24-.49-.06-.7,.15-.18,3.82-4.53,10.49-8.59,2.1-1.28,4.46-2.15,7.02-2.59l14.07-2.44c.27-.05,.53,.14,.58,.41,.05,.27-.14,.53-.41,.58l-14.07,2.44c-2.43,.42-4.67,1.25-6.67,2.46-6.53,3.97-10.21,8.34-10.24,8.38-.1,.12-.24,.18-.38,.18Z" fill="#002346"></path>
  <path d="M357.19,533.1l-.36-.32-.53,.04q-.03-.35,21.08-19.93c1.42-1.32,3.17-2.27,5.05-2.75l20.39-5.2c.27-.07,.54,.09,.61,.36s-.09,.54-.36,.61l-20.39,5.2c-1.72,.44-3.31,1.31-4.61,2.51-12.73,11.8-20.53,19.08-20.88,19.47Z" fill="#002346"></path>
  <path d="M369.15,534.31c-.11,0-.23-.04-.32-.12-.04-.03-.9-.79-.75-2.03,.16-1.36,1.47-2.68,3.88-3.93l34.65-18.3c.12-.08,3.88-2.49,10.14-1.56,.27,.04,.46,.29,.42,.57-.04,.27-.29,.46-.57,.42-5.85-.87-9.45,1.41-9.48,1.43l-34.69,18.33c-2.61,1.34-3.26,2.45-3.35,3.14-.09,.71,.39,1.15,.42,1.17,.2,.18,.22,.5,.04,.7-.1,.11-.24,.17-.38,.17Z" fill="#002346"></path>
  <g>
    <path d="M396.12,178.22l80.98-3.84-8.73-32.18-28.57-9.41s-22.84,9.81-22.92,9.41-20.76,36.02-20.76,36.02Z" fill="#002346"></path>
    <path d="M395.24,178.76l.45-.79c20.5-36.1,20.81-36.33,21.26-36.27,1.39-.33,14.22-5.74,22.66-9.37l.17-.07,29,9.55,8.96,33.04-82.51,3.91Zm21.94-36.14c-1.11,1.62-12.41,21.38-20.17,35.05l79.45-3.77-8.5-31.32-28.13-9.26c-17.1,7.34-21.44,8.99-22.65,9.3Z" fill="#002346"></path>
  </g>
</svg>
